<svg id="users-group" xmlns="http://www.w3.org/2000/svg" width="24" height="24" viewBox="0 0 24 24">
  <path id="Path_2534" data-name="Path 2534" d="M0,0H24V24H0Z" fill="none"/>
  <path id="Path_2535" data-name="Path 2535" d="M10,13a2,2,0,1,0,2-2,2,2,0,0,0-2,2" fill="none" stroke="#a1a2a7" stroke-linecap="round" stroke-linejoin="round" stroke-width="2"/>
  <path id="Path_2536" data-name="Path 2536" d="M8,21V20a2,2,0,0,1,2-2h4a2,2,0,0,1,2,2v1" fill="none" stroke="#a1a2a7" stroke-linecap="round" stroke-linejoin="round" stroke-width="2"/>
  <path id="Path_2537" data-name="Path 2537" d="M15,5a2,2,0,1,0,2-2,2,2,0,0,0-2,2" fill="none" stroke="#a1a2a7" stroke-linecap="round" stroke-linejoin="round" stroke-width="2"/>
  <path id="Path_2538" data-name="Path 2538" d="M17,10h2a2,2,0,0,1,2,2v1" fill="none" stroke="#a1a2a7" stroke-linecap="round" stroke-linejoin="round" stroke-width="2"/>
  <path id="Path_2539" data-name="Path 2539" d="M5,5A2,2,0,1,0,7,3,2,2,0,0,0,5,5" fill="none" stroke="#a1a2a7" stroke-linecap="round" stroke-linejoin="round" stroke-width="2"/>
  <path id="Path_2540" data-name="Path 2540" d="M3,13V12a2,2,0,0,1,2-2H7" fill="none" stroke="#a1a2a7" stroke-linecap="round" stroke-linejoin="round" stroke-width="2"/>
</svg>
