<svg xmlns="http://www.w3.org/2000/svg" width="17.781" height="17.781" viewBox="0 0 17.781 17.781">
  <g id="Group_19275" data-name="Group 19275" transform="translate(-19.516 -251.515)">
    <g id="brand-google-analytics" transform="translate(19.516 251.515)">
      <path id="Path_2558" data-name="Path 2558" d="M0,0H17.781V17.781H0Z" fill="none"/>
      <path id="Path_2559" data-name="Path 2559" d="M10,9m0,.819A.819.819,0,0,1,10.819,9h1.326a.819.819,0,0,1,.819.819v7.253a.819.819,0,0,1-.819.819H10.819A.819.819,0,0,1,10,17.072Z" transform="translate(-2.591 -2.332)" fill="none" stroke="#a1a2a7" stroke-linecap="round" stroke-linejoin="round" stroke-width="1.5"/>
      <path id="Path_2560" data-name="Path 2560" d="M17,3m0,.819A.819.819,0,0,1,17.819,3h1.326a.819.819,0,0,1,.819.819v11.7a.819.819,0,0,1-.819.819H17.819A.819.819,0,0,1,17,15.517Z" transform="translate(-4.405 -0.777)" fill="none" stroke="#a1a2a7" stroke-linecap="round" stroke-linejoin="round" stroke-width="1.5"/>
      <path id="Path_2561" data-name="Path 2561" d="M4.482,18.482,3,18.482A1.482,1.482,0,1,0,4.482,17,1.482,1.482,0,0,0,3,18.482" transform="translate(-0.777 -4.405)" fill="none" stroke="#a1a2a7" stroke-linecap="round" stroke-linejoin="round" stroke-width="1.5"/>
    </g>
  </g>
</svg>
