<svg xmlns="http://www.w3.org/2000/svg" width="23.004" height="26.746" viewBox="0 0 23.004 26.746">
  <g id="Group_19271" data-name="Group 19271" transform="translate(-17 -527)">
    <g id="Group_19269" data-name="Group 19269" transform="translate(17 527)">
      <path id="Path_2255" data-name="Path 2255" d="M23,6.677,18.037,3.8l-1.569.909V2.877L11.5,0,6.536,2.877V4.69L4.966,3.781,0,6.658v2.8H.783V7.383l3.792,2.2V14.2L.783,12V10.241H0v2.215l1.567.908L0,14.272v5.8l4.966,2.877,1.569-.909v1.832L11.5,26.746l4.966-2.877V22.056l1.569.909L23,20.088V18.071h-.783v1.565l-3.792,2.2V17.211l3.792-2.2v2.273H23v-3l-1.567-.908L23,12.474Zm-1.328.136L18.037,8.92,14.4,6.812,18.037,4.7ZM11.5,20.315,7.864,18.207l1.021-.591L11.5,19.132l2.618-1.516,1.021.591ZM9.15,7.383V8.944L6.536,10.458v3.06L5.358,14.2V9.579Zm2.352,1.1,3.638,2.108L11.5,12.7,7.864,10.594Zm-4.183,2.7,3.792,2.2V18L7.319,15.8ZM11.893,18V13.379l3.792-2.2V15.8Zm1.961-9.057V7.4l3.792,2.2v4.621l-1.178-.682V10.458Zm-.783-2.267V8.49l-1.178-.682V5.8l3.792-2.2V5.162ZM15.14,3.012,11.5,5.12,7.864,3.012,11.5.9ZM7.319,3.6,11.11,5.8v2.01L9.933,8.49V6.658L7.319,5.144ZM8.6,6.794,4.966,8.9,1.328,6.794,4.966,4.686ZM4.966,15.332l1.569-.909v1.182l-1.569.909L1.328,14.407l1.021-.591ZM.783,15l3.792,2.2v4.621l-3.792-2.2Zm4.575,6.818V17.193l1.4-.81,1.347.78-1.567.908v3.06ZM7.319,18.8l3.792,2.2v4.621l-3.792-2.2Zm4.575,6.818V20.993l3.792-2.2v4.621ZM14.9,17.164l1.331-.771,1.414.819v4.621l-1.178-.682V18.072Zm6.775-2.738-3.638,2.107-1.569-.909V14.442l1.569.909,2.618-1.516Zm-3.247-.206V9.6l3.792-2.2v4.621Z" transform="translate(0)" fill="#a1a2a7"/>
      <path id="Path_2256" data-name="Path 2256" d="M23,6.677,18.037,3.8l-1.569.909V2.877L11.5,0,6.536,2.877V4.69L4.966,3.781,0,6.658v2.8H.783V7.383l3.792,2.2V14.2L.783,12V10.241H0v2.215l1.567.908L0,14.272v5.8l4.966,2.877,1.569-.909v1.832L11.5,26.746l4.966-2.877V22.056l1.569.909L23,20.088V18.071h-.783v1.565l-3.792,2.2V17.211l3.792-2.2v2.273H23v-3l-1.567-.908L23,12.474Zm-1.328.136L18.037,8.92,14.4,6.812,18.037,4.7ZM11.5,20.315,7.864,18.207l1.021-.591L11.5,19.132l2.618-1.516,1.021.591ZM9.15,7.383V8.944L6.536,10.458v3.06L5.358,14.2V9.579Zm2.352,1.1,3.638,2.108L11.5,12.7,7.864,10.594Zm-4.183,2.7,3.792,2.2V18L7.319,15.8ZM11.893,18V13.379l3.792-2.2V15.8Zm1.961-9.057V7.4l3.792,2.2v4.621l-1.178-.682V10.458Zm-.783-2.267V8.49l-1.178-.682V5.8l3.792-2.2V5.162ZM15.14,3.012,11.5,5.12,7.864,3.012,11.5.9ZM7.319,3.6,11.11,5.8v2.01L9.933,8.49V6.658L7.319,5.144ZM8.6,6.794,4.966,8.9,1.328,6.794,4.966,4.686ZM4.966,15.332l1.569-.909v1.182l-1.569.909L1.328,14.407l1.021-.591ZM.783,15l3.792,2.2v4.621l-3.792-2.2Zm4.575,6.818V17.193l1.4-.81,1.347.78-1.567.908v3.06ZM7.319,18.8l3.792,2.2v4.621l-3.792-2.2Zm4.575,6.818V20.993l3.792-2.2v4.621ZM14.9,17.164l1.331-.771,1.414.819v4.621l-1.178-.682V18.072Zm6.775-2.738-3.638,2.107-1.569-.909V14.442l1.569.909,2.618-1.516Zm-3.247-.206V9.6l3.792-2.2v4.621Z" transform="translate(0)" fill="#a1a2a7" opacity="0.5"/>
    </g>
  </g>
</svg>
