<svg xmlns="http://www.w3.org/2000/svg" width="20.448" height="20.448" viewBox="0 0 20.448 20.448">
  <g id="Group_19274" data-name="Group 19274" transform="translate(-18 -309.734)">
    <g id="Integration_with_External_Tools" data-name="Integration with External Tools" transform="translate(18 309.734)">
      <path id="Path_2358" data-name="Path 2358" d="M0,0H20.448V20.448H0Z" fill="none"/>
      <path id="Path_2359" data-name="Path 2359" d="M18.336,10.946V7.1a1.687,1.687,0,0,0-.852-1.463L11.52,2.227a1.718,1.718,0,0,0-1.7,0L3.852,5.641A1.689,1.689,0,0,0,3,7.1v6.831A1.685,1.685,0,0,0,3.852,15.4l5.964,3.415a1.718,1.718,0,0,0,1.7,0" transform="translate(-0.444 -0.296)" fill="none" stroke="#a1a2a7" stroke-linecap="round" stroke-linejoin="round" stroke-width="1.5"/>
      <path id="Path_2360" data-name="Path 2360" d="M12,20.52V12" transform="translate(-1.776 -1.776)" fill="none" stroke="#a1a2a7" stroke-linecap="round" stroke-linejoin="round" stroke-width="1.5"/>
      <path id="Path_2361" data-name="Path 2361" d="M12,11.254,19.438,6.96" transform="translate(-1.776 -1.03)" fill="none" stroke="#a1a2a7" stroke-linecap="round" stroke-linejoin="round" stroke-width="1.5"/>
      <path id="Path_2362" data-name="Path 2362" d="M3.27,6.96l7.438,4.294" transform="translate(-0.484 -1.03)" fill="none" stroke="#a1a2a7" stroke-linecap="round" stroke-linejoin="round" stroke-width="1.5"/>
      <path id="Path_2363" data-name="Path 2363" d="M16,19h5.112" transform="translate(-2.368 -2.812)" fill="none" stroke="#a1a2a7" stroke-linecap="round" stroke-linejoin="round" stroke-width="1.5"/>
      <path id="Path_2364" data-name="Path 2364" d="M19,16v5.112" transform="translate(-2.812 -2.368)" fill="none" stroke="#a1a2a7" stroke-linecap="round" stroke-linejoin="round" stroke-width="1.5"/>
    </g>
  </g>
</svg>
