<svg id="square-rounded-plus-filled" xmlns="http://www.w3.org/2000/svg" width="19.596" height="19.596" viewBox="0 0 19.596 19.596">
  <path id="Path_2352" data-name="Path 2352" d="M11.8,2h.317l.312,0,.6.017.293.013.567.033.542.045c4.688.455,6.6,2.362,7.051,7.051l.045.542.033.567c0,.1.01.194.013.293l.017.6,0,.629,0,.629-.017.6-.013.293-.033.567-.045.542c-.455,4.688-2.362,6.6-7.051,7.051l-.542.045-.567.033c-.1,0-.194.01-.293.013l-.6.017-.629,0-.629,0-.6-.017-.293-.013-.567-.033-.542-.045c-4.688-.455-6.6-2.362-7.051-7.051l-.045-.542-.033-.567q-.007-.146-.013-.293L2,12.427q0-.309,0-.629V11.48l0-.312.017-.6.013-.293.033-.567.045-.542c.455-4.688,2.362-6.6,7.051-7.051l.542-.045.567-.033c.1,0,.194-.01.293-.013l.6-.017q.309,0,.629,0Zm0,5.879a.98.98,0,0,0-.98.98v1.96H8.859l-.115.007a.98.98,0,0,0,.115,1.953h1.96v1.96l.007.115a.98.98,0,0,0,1.953-.115v-1.96h1.96l.115-.007a.98.98,0,0,0-.115-1.953h-1.96V8.859l-.007-.115a.98.98,0,0,0-.973-.865Z" transform="translate(-2 -2)" fill="#a1a2a7"/>
</svg>
