<svg xmlns="http://www.w3.org/2000/svg" width="13.001" height="13" viewBox="0 0 13.001 13">
  <g id="Union_9" data-name="Union 9" transform="translate(9422.001 -2316.999)" fill="none">
    <path d="M-9415,2330v-6h6v6Zm-7,0v-6h6v6Zm7-7v-6h6v6Zm-7,0v-6h6v6Z" stroke="none"/>
    <path d="M -9410.5 2328.49951171875 L -9410.5 2325.50048828125 L -9413.4990234375 2325.50048828125 L -9413.4990234375 2328.49951171875 L -9410.5 2328.49951171875 M -9417.4990234375 2328.49951171875 L -9417.4990234375 2325.50048828125 L -9420.5009765625 2325.50048828125 L -9420.5009765625 2328.49951171875 L -9417.4990234375 2328.49951171875 M -9410.5 2321.500244140625 L -9410.5 2318.4990234375 L -9413.4990234375 2318.4990234375 L -9413.4990234375 2321.500244140625 L -9410.5 2321.500244140625 M -9417.4990234375 2321.500244140625 L -9417.4990234375 2318.4990234375 L -9420.5009765625 2318.4990234375 L -9420.5009765625 2321.500244140625 L -9417.4990234375 2321.500244140625 M -9409 2329.99951171875 L -9414.9990234375 2329.99951171875 L -9414.9990234375 2324.00048828125 L -9409 2324.00048828125 L -9409 2329.99951171875 Z M -9415.9990234375 2329.99951171875 L -9422.0009765625 2329.99951171875 L -9422.0009765625 2324.00048828125 L -9415.9990234375 2324.00048828125 L -9415.9990234375 2329.99951171875 Z M -9409 2323.000244140625 L -9414.9990234375 2323.000244140625 L -9414.9990234375 2316.9990234375 L -9409 2316.9990234375 L -9409 2323.000244140625 Z M -9415.9990234375 2323.000244140625 L -9422.0009765625 2323.000244140625 L -9422.0009765625 2316.9990234375 L -9415.9990234375 2316.9990234375 L -9415.9990234375 2323.000244140625 Z" stroke="none" fill="#6d61ee"/>
  </g>
</svg>
