<svg xmlns="http://www.w3.org/2000/svg" xmlns:xlink="http://www.w3.org/1999/xlink" width="31.652" height="21.102" viewBox="0 0 31.652 21.102">
  <defs>
    <linearGradient id="linear-gradient" x1="0.5" y1="1.217" x2="0.5" y2="-0.223" gradientUnits="objectBoundingBox">
      <stop offset="0" stop-color="#5161b5"/>
      <stop offset="1" stop-color="#d3a3de"/>
    </linearGradient>
  </defs>
  <path id="Icon_awesome-keyboard" data-name="Icon awesome-keyboard" d="M29.015,25.6H2.638A2.638,2.638,0,0,1,0,22.964V7.138A2.638,2.638,0,0,1,2.638,4.5H29.015a2.638,2.638,0,0,1,2.638,2.638V22.964A2.638,2.638,0,0,1,29.015,25.6ZM7.034,10.874v-2.2a.659.659,0,0,0-.659-.659h-2.2a.659.659,0,0,0-.659.659v2.2a.659.659,0,0,0,.659.659h2.2A.659.659,0,0,0,7.034,10.874Zm5.275,0v-2.2a.659.659,0,0,0-.659-.659h-2.2a.659.659,0,0,0-.659.659v2.2a.659.659,0,0,0,.659.659h2.2A.659.659,0,0,0,12.309,10.874Zm5.275,0v-2.2a.659.659,0,0,0-.659-.659h-2.2a.659.659,0,0,0-.659.659v2.2a.659.659,0,0,0,.659.659h2.2A.659.659,0,0,0,17.585,10.874Zm5.275,0v-2.2a.659.659,0,0,0-.659-.659H20a.659.659,0,0,0-.659.659v2.2a.659.659,0,0,0,.659.659h2.2A.659.659,0,0,0,22.86,10.874Zm5.275,0v-2.2a.659.659,0,0,0-.659-.659h-2.2a.659.659,0,0,0-.659.659v2.2a.659.659,0,0,0,.659.659h2.2A.659.659,0,0,0,28.135,10.874ZM9.672,16.15v-2.2a.659.659,0,0,0-.659-.659h-2.2a.659.659,0,0,0-.659.659v2.2a.659.659,0,0,0,.659.659h2.2A.659.659,0,0,0,9.672,16.15Zm5.275,0v-2.2a.659.659,0,0,0-.659-.659h-2.2a.659.659,0,0,0-.659.659v2.2a.659.659,0,0,0,.659.659h2.2A.659.659,0,0,0,14.947,16.15Zm5.275,0v-2.2a.659.659,0,0,0-.659-.659h-2.2a.659.659,0,0,0-.659.659v2.2a.659.659,0,0,0,.659.659h2.2A.659.659,0,0,0,20.222,16.15Zm5.275,0v-2.2a.659.659,0,0,0-.659-.659h-2.2a.659.659,0,0,0-.659.659v2.2a.659.659,0,0,0,.659.659h2.2A.659.659,0,0,0,25.5,16.15ZM7.034,21.425v-2.2a.659.659,0,0,0-.659-.659h-2.2a.659.659,0,0,0-.659.659v2.2a.659.659,0,0,0,.659.659h2.2A.659.659,0,0,0,7.034,21.425Zm15.826,0v-2.2a.659.659,0,0,0-.659-.659H9.452a.659.659,0,0,0-.659.659v2.2a.659.659,0,0,0,.659.659H22.2A.659.659,0,0,0,22.86,21.425Zm5.275,0v-2.2a.659.659,0,0,0-.659-.659h-2.2a.659.659,0,0,0-.659.659v2.2a.659.659,0,0,0,.659.659h2.2A.659.659,0,0,0,28.135,21.425Z" transform="translate(0 -4.5)" opacity="0.7" fill="url(#linear-gradient)"/>
</svg>
